<?xml version="1.0" encoding="iso-8859-1"?>
<!-- Generator: Adobe Illustrator 16.0.0, SVG Export Plug-In . SVG Version: 6.00 Build 0)  -->
<!DOCTYPE svg PUBLIC "-//W3C//DTD SVG 1.1//EN" "http://www.w3.org/Graphics/SVG/1.1/DTD/svg11.dtd">
<svg version="1.1" id="Capa_1" xmlns="http://www.w3.org/2000/svg" xmlns:xlink="http://www.w3.org/1999/xlink" x="0px" y="0px"
	 width="366.324px" height="366.324px" viewBox="0 0 366.324 366.324" style="enable-background:new 0 0 366.324 366.324;"
	 xml:space="preserve">
<g>
	<g>
		<path d="M42.089,366.324h182.357l97.049-97.049l0.013-0.013l2.728-2.728v-3.873V0H42.089V366.324z M230.706,333.613v-61.598
			h61.599L230.706,333.613z M60.794,18.706H305.53v234.603h-93.529v94.309H60.794V18.706z"/>
		<path d="M263.064,155.103h16.647c5.164,0,9.353-4.189,9.353-9.353s-4.188-9.353-9.353-9.353h-16.647
			c-4.293-36.912-33.637-66.25-70.549-70.552V49.198c0-5.164-4.184-9.354-9.354-9.354c-5.169,0-9.353,4.189-9.353,9.354v16.647
			c-36.913,4.302-66.256,33.64-70.552,70.552H86.616c-5.17,0-9.353,4.189-9.353,9.353s4.183,9.353,9.353,9.353h16.642
			c4.296,36.912,33.64,66.25,70.552,70.549V242.3c0,5.163,4.183,9.353,9.353,9.353c5.17,0,9.354-4.189,9.354-9.353v-16.648
			C229.428,221.353,258.771,192.015,263.064,155.103z M244.17,136.397h-51.654V84.749C219.101,88.81,240.102,109.821,244.17,136.397
			z M173.81,84.749v51.648h-51.654C126.223,109.821,147.227,88.81,173.81,84.749z M122.155,155.103h51.654v51.648
			C147.227,202.69,126.223,181.676,122.155,155.103z M192.516,206.751v-51.648h51.654
			C240.102,181.676,219.101,202.69,192.516,206.751z"/>
	</g>
</g>
<g>
</g>
<g>
</g>
<g>
</g>
<g>
</g>
<g>
</g>
<g>
</g>
<g>
</g>
<g>
</g>
<g>
</g>
<g>
</g>
<g>
</g>
<g>
</g>
<g>
</g>
<g>
</g>
<g>
</g>
</svg>
